<svg xmlns="http://www.w3.org/2000/svg" width="256" height="256" viewBox="0 0 100 100"><rect width="100" height="100" rx="20" fill="#4c1682"></rect><path d="M19.44 92.79Q16.71 92.79 15.48 92.28Q14.25 91.77 14.25 90.74L14.25 90.74Q14.25 90.26 14.59 89.10L14.59 89.10L43.37 9.19Q44.05 7.21 48.22 7.21L48.22 7.21L51.78 7.21Q55.95 7.21 56.63 9.19L56.63 9.19L85.41 89.17Q85.75 89.92 85.75 90.74L85.75 90.74Q85.75 92.79 80.63 92.79L80.63 92.79L79.60 92.79Q75.36 92.79 74.68 90.88L74.68 90.88L67.57 70.92L31.88 70.92L24.91 90.88Q24.30 92.79 20.06 92.79L20.06 92.79L19.44 92.79ZM35.23 61.69L64.29 61.69L51.57 25.53Q51.03 24.02 50.68 22.11Q50.34 20.20 50.07 18.42L50.07 18.42L49.79 18.42Q48.97 23.00 47.95 25.53L47.95 25.53L35.23 61.69Z" fill="#ffffff"></path></svg>